<svg width="207" height="241" viewBox="0 0 207 241" fill="none" xmlns="http://www.w3.org/2000/svg">
<path d="M132 91C173.421 91 207 124.579 207 166C207 207.421 173.421 241 132 241H0.796875C0.356807 241 0 240.643 0 240.203V170C3.54341e-07 167.791 1.79086 166 4 166H104C110.627 166 116 160.627 116 154V91.3623C116 91.1623 116.162 91.0001 116.362 91H132Z" fill="#0D897A"/>
<path d="M206.203 0C206.643 0 207 0.356807 207 0.796875V71C207 73.2091 205.209 75 203 75H112C105.373 75 100 80.3726 100 87V149.602C100 149.822 99.8216 150 99.6016 150H75C33.5786 150 0 116.421 0 75C0 33.5786 33.5786 0 75 0H206.203Z" fill="#0D897A"/>
</svg>
